<?xml version="1.0"?>
<svg width="250" height="250" xmlns="http://www.w3.org/2000/svg">
  <path d="m24.1875,37.34375c-2.41946,0 -4.375,1.95261 -4.375,4.375l0,13.15625l-8.78125,0l0,149.03125l94.375,0c4.795113,5.376556 11.821114,8.75 19.59375,8.75c7.772644,0 14.770325,-3.373444 19.5625,-8.75l94.40625,0l0,-149.03125l-8.78125,0l0,-13.15625c0,-2.42239 -1.955536,-4.375 -4.375,-4.375l-83.28125,0c-7.153198,0 -13.530945,3.431862 -17.53125,8.75c-4.000267,-5.318138 -10.378052,-8.75 -17.53125,-8.75l-83.28125,0zm4.375,8.75l78.90625,0c7.249603,0 13.15625,5.906639 13.15625,13.15625l0,2.625c-4.901649,1.82407 -8.40625,6.52372 -8.40625,12.0625c0,5.538803 3.504601,10.238426 8.40625,12.0625l0,53.875c-4.903969,1.822876 -8.40625,6.522034 -8.40625,12.0625c0,7.120941 5.785309,12.90625 12.90625,12.90625c7.120911,0 12.875,-5.785309 12.875,-12.90625c0,-5.621017 -3.608505,-10.361588 -8.625,-12.125l0,-53.71875c0.380859,-0.133751 0.761353,-0.301277 1.125,-0.46875l22,21.75c-1.078796,1.884598 -1.6875,4.04686 -1.6875,6.375c0,7.120918 5.754059,12.90625 12.875,12.90625c7.120911,0 12.875,-5.785332 12.875,-12.90625c0,-7.120934 -5.754089,-12.875 -12.875,-12.875c-1.488235,0 -2.920258,0.25518 -4.25,0.71875l-22.59375,-22.34375c0.735046,-1.618729 1.15625,-3.417969 1.15625,-5.3125c0,-5.622368 -3.606598,-10.39386 -8.625,-12.15625l0,-2.53125c0,-7.249611 5.906647,-13.15625 13.15625,-13.15625l78.90625,0l0,140.28125l-78.90625,0c-7.150238,0 -13.530945,3.431854 -17.53125,8.75c-4.000267,-5.318146 -10.380981,-8.75 -17.53125,-8.75l-78.90625,0l0,-140.28125z"/>
</svg>
